<svg xmlns="http://www.w3.org/2000/svg" width="268.909" height="92" viewBox="0 0 268.909 92">
  <g id="Group_2682" data-name="Group 2682" transform="translate(-571.905 -573.967)">
    <path id="Path_15" data-name="Path 15" d="M571.905,576.6h5.526v40.811h-5.526v.972h17.248v-.972h-5.527V576.6h5.527v-.972H571.905Z" transform="translate(0 -0.692)" fill="#262626"/>
    <path id="Path_16" data-name="Path 16" d="M608.45,613.952V578.545h.122l29.09,40.205h.79V579.882c0-2.49.486-3.28,3.158-3.28h2.672v-.972H631.468v.972h2.854c2.672,0,3.158.789,3.158,3.28v27.45h-.122L614.4,575.63H601.649v.972h5.83v37.35c0,2.916-.971,3.462-3.765,3.462h-2.065v.972h13v-.972h-2.429C609.422,617.414,608.45,616.867,608.45,613.952Z" transform="translate(-12.375 -0.692)" fill="#262626"/>
    <path id="Path_17" data-name="Path 17" d="M689.386,576.6h1.276v40.812h-6.255v.972h18.706v-.972h-6.255V576.6h1.336c10.75,0,13.179,1.639,13.179,11.6h.972V575.63H675.175V588.2h.972C676.147,578.242,678.576,576.6,689.386,576.6Z" transform="translate(-42.964 -0.692)" fill="#262626"/>
    <path id="Path_18" data-name="Path 18" d="M775.478,605.936h-.972c0,10.324-4.737,11.478-14.576,11.478h-8.32V597.13H756.1c6.377,0,6.984,2.794,6.984,7.409h.972V588.384h-.972c0,3.947-.607,7.773-6.924,7.773H751.61V576.6h9.535c6.438,0,11.053,2.368,11.053,9.353h.972l-.728-10.325h-32.37v.972h5.344v40.812h-5.344v.972h35.407Z" transform="translate(-69.964 -0.692)" fill="#262626"/>
    <path id="Path_19" data-name="Path 19" d="M822.831,617.414h-6.195V596.887h3.947c6.863,0,7.956,3.461,8.381,7.287l.425,3.644c.85,6.984,1.275,10.932,8.685,10.932a14.452,14.452,0,0,0,4.8-.73v.364H860.12v-.972h-5.527V576.6h5.527v-.972H842.872v.972H848.4v40.812h-5.527v.151l-.182-.394a6.208,6.208,0,0,1-2.49.608c-1.033,0-2.733-.242-3.158-3.826l-.851-7.409c-.911-8.017-4.615-9.535-11.6-10.143v-.121c4.434-.547,13-2.49,13-9.9,0-9.171-7.591-10.75-14.576-10.75H804.368v.972h6.074v40.812h-6.074v.972h18.463ZM816.636,576.6h4.13c8.624,0,10.264,4.919,10.264,9.778,0,7.044-4.191,9.535-11.357,9.535h-3.036Z" transform="translate(-96.713 -0.692)" fill="#262626"/>
    <path id="Path_20" data-name="Path 20" d="M921.069,618.665c10.264,0,19.192-9.9,19.192-22.348s-8.928-22.35-19.192-22.35-19.191,9.9-19.191,22.35S910.806,618.665,921.069,618.665Zm0-43.727c10.81,0,12.268,13.423,12.268,21.379s-1.458,21.376-12.268,21.376S908.8,604.272,908.8,596.317,910.259,574.938,921.069,574.938Z" transform="translate(-137.282 0)" fill="#262626"/>
    <path id="Path_21" data-name="Path 21" d="M1004.47,617.171a6.2,6.2,0,0,1-2.489.608c-1.033,0-2.733-.242-3.158-3.826l-.85-7.409c-.911-8.017-4.617-9.535-11.6-10.143v-.121c4.434-.547,13-2.49,13-9.9,0-9.171-7.592-10.75-14.576-10.75H966.149v.972h6.073v40.812h-6.073v.972h18.462v-.972h-6.2V596.887h3.948c6.863,0,7.956,3.461,8.38,7.287l.425,3.644c.85,6.984,1.275,10.932,8.684,10.932a14.406,14.406,0,0,0,4.98-.79Zm-23.016-21.256h-3.037V576.6h4.131c8.623,0,10.263,4.919,10.263,9.778C992.81,593.425,988.62,595.915,981.453,595.915Z" transform="translate(-164.021 -0.692)" fill="#262626"/>
    <path id="Path_22" data-name="Path 22" d="M644.086,656.63H625.077v.971h5.77v40.813h-5.77v.972h19.07c12.45,0,20.649-8.139,20.649-21.378C664.8,669.931,660.241,656.63,644.086,656.63Zm-1.822,41.785h-5.223V657.6h2.976c14.879,0,17.855,10.022,17.855,20.407C657.872,696.349,647.73,698.415,642.264,698.415Z" transform="translate(-22.122 -34.391)" fill="#262626"/>
    <path id="Path_23" data-name="Path 23" d="M712.015,698.415h-8.32V678.13h4.494c6.377,0,6.984,2.793,6.984,7.408h.971V669.384h-.971c0,3.947-.607,7.774-6.924,7.774h-4.555V657.6h9.535c6.438,0,11.053,2.369,11.053,9.354h.972l-.729-10.325h-32.37v.971H697.5v40.813h-5.344v.972h35.407v-12.45h-.972C726.59,697.26,721.853,698.415,712.015,698.415Z" transform="translate(-50.029 -34.391)" fill="#262626"/>
    <path id="Path_24" data-name="Path 24" d="M774.345,673.429c-10.082-1.821-12.147-3.036-12.147-8.5,0-5.588,3.644-8.989,8.806-8.989,8.138,0,11.9,6.256,12.45,13.18h.971V656.363h-.971c-.182.79-.364,2.308-1.761,2.308-2.065,0-4.433-3.7-10.689-3.7-6.8,0-11.356,5.04-11.356,11.965,0,10.2,4.494,11.782,14.029,13.3,6.984,1.094,10.264,2.976,10.264,9.292,0,5.465-4.191,9.171-10.021,9.171-7.287,0-13.3-4.8-13.3-15h-.971v15.365h.971c0-1.032.06-2.55,1.518-2.55,2.247,0,5.466,3.158,11.539,3.158,8.807,0,13.179-5.952,13.179-13.907C786.855,677.863,783.212,675.009,774.345,673.429Z" transform="translate(-78.108 -33.699)" fill="#262626"/>
    <path id="Path_25" data-name="Path 25" d="M807.508,657.6h5.527v40.813h-5.527v.972h17.247v-.972H819.23V657.6h5.526v-.971H807.508Z" transform="translate(-98.02 -34.391)" fill="#262626"/>
    <path id="Path_26" data-name="Path 26" d="M878.827,681.689H861.882v.972h5.587v8.624c0,5.526-3.947,7.41-9.778,7.41-10.81,0-12.267-13.544-12.267-21.378,0-7.955,1.458-21.378,12.267-21.378a14.174,14.174,0,0,1,13.787,13.119h.971v-13h-.971c0,1.518-.3,3.037-2.126,3.037-2,0-4.98-4.13-11.661-4.13-10.264,0-19.191,9.9-19.191,22.349,0,14.333,8.32,22.35,19.191,22.35,9.17,0,14.272-4.858,16.337-6.5V682.661h4.8Z" transform="translate(-110.914 -33.699)" fill="#262626"/>
    <path id="Path_27" data-name="Path 27" d="M933.942,657.6H936.8c2.672,0,3.159.79,3.159,3.281v27.45h-.122l-22.956-31.7H904.123v.971h5.83v37.352c0,2.915-.972,3.462-3.766,3.462h-2.064v.972h13v-.972H914.69c-2.794,0-3.765-.547-3.765-3.462V659.545h.121l29.091,40.2h.789V660.882c0-2.49.486-3.281,3.158-3.281h2.672v-.971H933.942Z" transform="translate(-138.216 -34.391)" fill="#262626"/>
    <path id="Path_28" data-name="Path 28" d="M972.372,662.126v-.014a.438.438,0,0,0,.343-.428.422.422,0,0,0-.161-.364.925.925,0,0,0-.547-.133,3.046,3.046,0,0,0-.5.042v1.759h.28v-.758h.2a.329.329,0,0,1,.379.309,1.293,1.293,0,0,0,.12.448h.294a1.431,1.431,0,0,1-.112-.435C972.631,662.3,972.526,662.155,972.372,662.126Zm-.378-.112h-.2v-.6a1.324,1.324,0,0,1,.2-.015c.316,0,.428.155.428.309C972.421,661.93,972.225,662.015,971.993,662.015Z" transform="translate(-166.251 -36.287)" fill="#262626"/>
    <path id="Path_29" data-name="Path 29" d="M971.388,660h-.007a1.552,1.552,0,1,0,.007,0Zm0,2.915a1.337,1.337,0,0,1-.007-2.669h.007a1.337,1.337,0,0,1,0,2.669Z" transform="translate(-165.547 -35.793)" fill="#262626"/>
  </g>
</svg>
